<?xml version="1.0" standalone="no"?><!DOCTYPE svg PUBLIC "-//W3C//DTD SVG 1.1//EN" "http://www.w3.org/Graphics/SVG/1.1/DTD/svg11.dtd"><svg t="1728898537011" class="icon" viewBox="0 0 1024 1024" version="1.1" xmlns="http://www.w3.org/2000/svg" p-id="1721" xmlns:xlink="http://www.w3.org/1999/xlink" width="200" height="200"><path d="M885.01 910.45H219c-66.17 0-120-53.83-120-120v-665.5c0-22.09 17.91-40 40-40s40 17.91 40 40v665.5c0 22.06 17.94 40 40 40h666.01c22.09 0 40 17.91 40 40s-17.91 40-40 40z" p-id="1722" fill="#bfbfbf"></path><path d="M291 788.2c-22.09 0-40-17.91-40-40V622.95c0-22.09 17.91-40 40-40s40 17.91 40 40V748.2c0 22.09-17.91 40-40 40zM468.67 788.2c-22.09 0-40-17.91-40-40V483.95c0-22.09 17.91-40 40-40s40 17.91 40 40V748.2c0 22.09-17.91 40-40 40zM824 788.2c-22.09 0-40-17.91-40-40v-386c0-22.09 17.91-40 40-40s40 17.91 40 40v386c0 22.09-17.91 40-40 40zM646.33 788.2c-22.09 0-40-17.91-40-40v-618c0-22.09 17.91-40 40-40s40 17.91 40 40v618c0 22.09-17.91 40-40 40z" p-id="1723" fill="#bfbfbf"></path></svg>