<?xml version="1.0" standalone="no"?><!DOCTYPE svg PUBLIC "-//W3C//DTD SVG 1.1//EN" "http://www.w3.org/Graphics/SVG/1.1/DTD/svg11.dtd"><svg t="1728898525294" class="icon" viewBox="0 0 1024 1024" version="1.1" xmlns="http://www.w3.org/2000/svg" p-id="1480" xmlns:xlink="http://www.w3.org/1999/xlink" width="200" height="200"><path d="M833.243445 696.833659 685.654039 696.833659l0 0L443.182658 696.833659l0 0-31.626301 0 0 0-7.982812 0-85.617983 81.83789c-5.723352 5.472642-13.630439 8.858762-22.361287 8.858762l0 0 0 0c-0.134053 0-0.260943-0.032746-0.390903-0.032746-8.577353-0.104377-16.33606-3.440355-21.975501-8.826016-0.125867-0.11154-0.220011-0.275269-0.346901-0.393973-1.276063-1.281179-2.480494-2.615571-3.511987-4.076852-0.408299-0.579191-0.683569-1.248434-1.047866-1.859347-0.654916-1.066285-1.352811-2.112104-1.870604-3.269463-0.23843-0.553609-0.343831-1.157359-0.553609-1.721201-0.480954-1.295506-0.99056-2.579755-1.283226-3.961218-0.423649-1.963725-0.644683-4.004197-0.644683-6.087649l0 0 0-60.467163-5.270027 0 0 0L221.782176 696.834682c-17.457604-0.007163-31.611975-13.535271-31.611975-30.236652L190.170201 233.271858c0-16.70138 14.158465-30.229488 31.625278-30.229488l611.446943 0c17.46886 0 31.626301 13.528108 31.626301 30.229488l0 433.324126C864.869746 683.297364 850.712305 696.833659 833.243445 696.833659L833.243445 696.833659zM369.385908 394.513192c-34.93158 0-63.251579 27.068496-63.251579 60.467163 0 33.388435 28.319999 60.46307 63.251579 60.46307 34.936697 0 63.256696-27.075659 63.256696-60.46307C432.638511 421.581688 404.322605 394.513192 369.385908 394.513192L369.385908 394.513192zM527.520485 394.513192c-34.936697 0-63.252603 27.068496-63.252603 60.467163 0 33.388435 28.315906 60.46307 63.252603 60.46307 34.935674 0 63.252603-27.075659 63.252603-60.46307C590.773088 421.581688 562.456159 394.513192 527.520485 394.513192L527.520485 394.513192zM685.654039 394.513192c-34.935674 0-63.255673 27.068496-63.255673 60.467163 0 33.388435 28.319999 60.46307 63.255673 60.46307 34.932604 0 63.252603-27.075659 63.252603-60.46307C748.906641 421.581688 720.586642 394.513192 685.654039 394.513192L685.654039 394.513192z" fill="#6c5dd3" p-id="1481"></path></svg>